<?xml version="1.0" encoding="utf-8"?>
<svg viewBox="167.788 99.93 40.483 25.409" width="40.483" height="25.409" xmlns="http://www.w3.org/2000/svg">
  <defs>
    <linearGradient gradientUnits="userSpaceOnUse" x1="170.282" y1="87.035" x2="170.282" y2="101.021" id="gradient-0" spreadMethod="pad" gradientTransform="matrix(2.890452, 0, 0, 3.46494, -314.631688, -214.46445)">
      <stop offset="0" style="stop-color: rgba(143, 163, 78, 1)"/>
      <stop offset="1" style="stop-color: rgba(83, 94, 45, 1)"/>
    </linearGradient>
    <linearGradient gradientUnits="userSpaceOnUse" x1="179.03" y1="87.034" x2="179.03" y2="101.02" id="gradient-1" spreadMethod="pad" gradientTransform="matrix(2.890452, 0, 0, 3.46494, -320.317449, -214.292163)">
      <stop offset="0" style="stop-color: rgba(143, 163, 78, 1)"/>
      <stop offset="1" style="stop-color: rgba(83, 94, 45, 1)"/>
    </linearGradient>
  </defs>
  <g transform="matrix(1, 0, 0, 1, -7.105427357601002e-15, -1.7763568394002505e-15)">
    <path d="M 182.165 114.868 L 187.712 116.881 C 187.34 118.745 186.753 120.302 185.951 121.552 C 185.15 122.804 184.155 123.747 182.968 124.382 C 181.781 125.02 180.27 125.339 178.433 125.339 C 176.208 125.339 174.389 124.951 172.979 124.175 C 171.566 123.398 170.349 122.033 169.325 120.079 C 168.3 118.125 167.788 115.623 167.788 112.574 C 167.788 108.511 168.688 105.388 170.49 103.205 C 172.294 101.022 174.844 99.93 178.141 99.93 C 180.721 99.93 182.75 100.555 184.226 101.805 C 185.702 103.055 186.798 104.975 187.515 107.567 L 181.928 109.057 C 181.731 108.309 181.526 107.761 181.312 107.415 C 180.959 106.835 180.527 106.389 180.014 106.077 C 179.502 105.763 178.928 105.606 178.294 105.606 C 176.861 105.606 175.761 106.299 174.996 107.685 C 174.42 108.711 174.132 110.324 174.132 112.525 C 174.132 115.249 174.476 117.116 175.164 118.128 C 175.854 119.138 176.823 119.642 178.072 119.642 C 179.282 119.642 180.197 119.235 180.818 118.419 C 181.436 117.604 181.885 116.42 182.165 114.868 Z" style="fill: url('#gradient-0');"/>
    <path d="M 186.069 100.515 L 192.692 100.515 L 197.305 118.186 L 201.846 100.515 L 208.271 100.515 L 200.672 125.071 L 193.81 125.071 L 186.069 100.515 Z" style="fill: url('#gradient-1');"/>
  </g>
</svg>